<?xml version="1.0" encoding="utf-8"?>
<!-- Generator: Adobe Illustrator 16.0.0, SVG Export Plug-In . SVG Version: 6.00 Build 0)  -->
<!DOCTYPE svg PUBLIC "-//W3C//DTD SVG 1.1//EN" "http://www.w3.org/Graphics/SVG/1.1/DTD/svg11.dtd">
<svg version="1.1" id="Layer_1" xmlns="http://www.w3.org/2000/svg" xmlns:xlink="http://www.w3.org/1999/xlink" x="0px" y="0px"
	 width="368px" height="243px" viewBox="9 6 368 243" enable-background="new 9 6 368 243" xml:space="preserve">
<g>
	<g id="XMLID_1_">
		<g>
			<path fill="#212121" stroke="#212121" stroke-miterlimit="10" d="M52.61,23.33c2.34,0,4.25,1.9,4.25,4.25s-1.91,4.25-4.25,4.25
				c-2.35,0-4.25-1.9-4.25-4.25S50.26,23.33,52.61,23.33z"/>
			<path fill="#212121" stroke="#212121" stroke-miterlimit="10" d="M41.52,23.33c2.35,0,4.25,1.9,4.25,4.25s-1.9,4.25-4.25,4.25
				c-2.34,0-4.24-1.9-4.24-4.25S39.18,23.33,41.52,23.33z"/>
			<path fill="#212121" stroke="#212121" stroke-miterlimit="10" d="M30.44,23.33c2.35,0,4.25,1.9,4.25,4.25s-1.9,4.25-4.25,4.25
				s-4.25-1.9-4.25-4.25S28.09,23.33,30.44,23.33z"/>
		</g>
		<g>
			<path fill="none" stroke="#212121" stroke-width="3" stroke-miterlimit="10" d="M375.5,42.5v193c0,6.63-5.37,12-12,12h-341
				c-6.63,0-12-5.37-12-12v-193v-23c0-6.63,5.37-12,12-12h341c6.63,0,12,5.37,12,12V42.5z"/>
			<polyline fill="none" stroke="#212121" stroke-width="3" stroke-miterlimit="10" points="10,42.5 10.5,42.5 375,42.5 			"/>
			<path fill="none" stroke="#212121" stroke-miterlimit="10" d="M34.69,27.58c0,2.35-1.9,4.25-4.25,4.25s-4.25-1.9-4.25-4.25
				s1.9-4.25,4.25-4.25S34.69,25.23,34.69,27.58z"/>
			<path fill="none" stroke="#212121" stroke-miterlimit="10" d="M45.77,27.58c0,2.35-1.9,4.25-4.25,4.25
				c-2.34,0-4.24-1.9-4.24-4.25s1.9-4.25,4.24-4.25C43.87,23.33,45.77,25.23,45.77,27.58z"/>
			<path fill="none" stroke="#212121" stroke-miterlimit="10" d="M56.86,27.58c0,2.35-1.91,4.25-4.25,4.25
				c-2.35,0-4.25-1.9-4.25-4.25s1.9-4.25,4.25-4.25C54.95,23.33,56.86,25.23,56.86,27.58z"/>
		</g>
	</g>
</g>
</svg>
