<?xml version="1.0" encoding="utf-8"?>
<!-- Generator: Adobe Illustrator 16.0.0, SVG Export Plug-In . SVG Version: 6.00 Build 0)  -->
<!DOCTYPE svg PUBLIC "-//W3C//DTD SVG 1.1//EN" "http://www.w3.org/Graphics/SVG/1.1/DTD/svg11.dtd">
<svg version="1.1" id="Layer_1" xmlns="http://www.w3.org/2000/svg" xmlns:xlink="http://www.w3.org/1999/xlink" x="0px" y="0px"
	 width="640.664px" height="268.252px" viewBox="-231.238 -78.808 640.664 268.252"
	 enable-background="new -231.238 -78.808 640.664 268.252" xml:space="preserve">
<g id="Layer_1_1_">
	<g>
		<path d="M-133.526-206.015c2.131,0.604,9.221,2.244,21.271,4.914c7.891,1.615,11.97,2.943,12.232,3.983l0.029,0.114
			c-0.047,1.401-0.722,2.743-2.026,4.023c-0.9,0.896-1.759,1.445-2.571,1.653c-0.321,0.082-0.636,0.112-0.943,0.091
			c-8.075-0.682-15.199-1.979-21.371-3.892c-7.27-2.258-11.427-3.465-12.475-3.62c1.359,5.017,2.161,7.996,2.402,8.941l0.087,0.341
			c0.877,4.069,0.751,6.42-0.378,7.051c-0.938,0.521-1.782,0.878-2.538,1.07c-2.008,0.513-3.417,0.237-4.232-0.824
			c-0.366-0.491-0.858-1.947-1.478-4.37l-0.146-0.567c-0.097-0.378-0.276-1.32-0.539-2.826c-0.277-1.563-0.517-2.771-0.715-3.627
			l-0.195-0.768c-0.623-2.44-1.201-3.644-1.735-3.607l-0.816,0.238c-0.644,0.244-1.049,0.389-1.22,0.433l-0.198,0.052
			c-0.908,0.23-1.64,0.136-2.189-0.288c-0.435-0.354-0.724-0.822-0.874-1.41c-0.13-0.511-0.158-1.097-0.087-1.762
			c0.122-1.261,0.469-2.314,1.037-3.167c0.058-0.016,0.704-0.634,1.943-1.855c0.349-0.613,0.41-1.436,0.188-2.468
			c-0.582-2.674-1.551-6.709-2.907-12.107c-1.054-4.126-1.552-6.196-1.494-6.21c-0.686-1.498-1.956-2.021-3.815-1.565
			c-1.921,0.449-3.476,0.322-4.662-0.383c-0.504-0.314-0.813-0.699-0.931-1.153c-0.207-0.813,0.23-1.861,1.313-3.146
			c1.063-1.279,3.025-2.437,5.888-3.468c0.721-0.265,1.521-1.073,2.404-2.429c0.78-1.207,1.597-1.919,2.447-2.137l0.143-0.035
			c0.813-0.208,1.512-0.004,2.093,0.614c1.108,1.188,1.677,1.79,1.699,1.805l9.613,0.116c0.938,0.043,2.575,0.06,4.91,0.048
			c2.354-0.017,4.174,0.004,5.458,0.06c4.425,0.2,7.788,0.976,10.087,2.324c1.683,0.981,2.788,2.515,3.318,4.596
			c0.203,0.795,0.322,1.661,0.361,2.599c0.107,2.956-0.479,5.585-1.769,7.889c-1.46,2.65-4.013,5.528-7.652,8.636
			C-127.57-209.53-130.558-207.498-133.526-206.015z M-142.642-210.583c13.44-7.199,19.739-12.455,18.896-15.768
			c-0.088-0.341-0.22-0.66-0.396-0.958c-1.181-2.018-6.585-2.977-16.216-2.877c-2.63,0.047-4.406,0.188-5.334,0.424
			c-0.209,0.054-0.374,0.116-0.497,0.188c-0.963,0.648-1.062,2.479-0.293,5.487C-145.143-218.844-143.864-214.343-142.642-210.583z"
			/>
		<path d="M-71.654-217.116c1.119-1.375,2.03-2.15,2.729-2.329c0.7-0.179,1.187,0.262,1.456,1.321
			c0.361,3.313-0.568,7.129-2.794,11.445c-2.179,4.185-4.697,7.227-7.56,9.125c-1.071,0.536-2.167,0.946-3.282,1.23
			c-5.547,1.415-11.457-0.422-17.734-5.514c-2.136-1.731-3.679-4.463-4.63-8.19c-0.4-1.571-0.698-3.329-0.894-5.275
			c-0.35-3.499,1.771-6.407,6.359-8.729c0.623-0.319,1.258-0.563,1.9-0.728c1.76-0.448,3.551-0.301,5.374,0.443
			c2.068,0.843,4.045,2.384,5.927,4.625c0.617,1.072,1.054,2.109,1.31,3.112c0.758,2.972-0.021,5.721-2.342,8.247
			c-0.376,0.418-0.909,0.856-1.6,1.314c-0.773,0.521-1.236,0.84-1.389,0.959c-0.344,0.311-0.477,0.625-0.395,0.947l0.016,0.057
			c0.141,0.389,0.607,0.843,1.405,1.364c1.691,1.102,3.398,1.432,5.121,0.99c0.492-0.125,0.988-0.313,1.489-0.563
			c2.089-1.057,3.906-3.174,5.454-6.35C-73.637-213.828-72.28-216.331-71.654-217.116z M-93.65-208.994
			c1.211-0.31,2.097-0.987,2.655-2.038c0.521-0.96,0.689-2.03,0.51-3.214c-0.028-0.193-0.066-0.388-0.115-0.574
			c-0.231-0.909-0.664-1.655-1.298-2.239c-0.848-0.792-1.876-1.112-3.089-0.966c-0.155,0.021-0.301,0.047-0.434,0.08
			c-0.758,0.192-1.265,0.655-1.521,1.386c-0.271,0.754-0.262,1.699,0.028,2.834C-96.264-211.188-95.177-209.611-93.65-208.994z"/>
		<path d="M-61.822-223.374l0.276,0.142c0.952,0.02,5.867,0.479,14.744,1.378c3.25,0.34,5.609,1.059,7.08,2.153
			c0.971,0.721,1.598,1.639,1.882,2.755c0.251,0.983,0.238,2.116-0.04,3.396c-0.314,1.37-1.603,2.889-3.856,4.553
			c-2.104,1.545-4.616,2.922-7.532,4.129c-1.73,0.725-3.345,1.275-4.839,1.658c-1.062,0.271-2.07,0.458-3.03,0.563
			c-2.565,0.292-4.241-0.106-5.021-1.197c-0.769-1.033-1.271-2.023-1.515-2.971c-0.185-0.72-0.221-1.415-0.109-2.088
			c0.176-1.134,0.728-1.818,1.652-2.056c0.492-0.126,1.074-0.134,1.748-0.022c3.104,0.479,5.688,0.454,7.751-0.073
			c2.195-0.561,3.791-1.691,4.787-3.397c-0.34,0.087-4.462-0.069-12.365-0.474c-5.898-0.289-9.202-1.823-9.913-4.605
			c-0.158-0.383-0.285-0.763-0.383-1.144c-0.705-2.763,0.298-5.548,3.008-8.355c2.536-2.621,5.31-4.316,8.317-5.085l0.512-0.13
			c1.078-0.274,2.143-0.254,3.19,0.063c0.98,0.293,1.729,0.778,2.244,1.453c0.22,0.307,0.368,0.611,0.445,0.914
			c0.11,0.437,0.091,0.874-0.059,1.314c-0.306,0.863-1.087,1.628-2.35,2.292c-3.14,1.364-4.718,2.05-4.735,2.056
			c-1.668,0.89-2.426,1.637-2.271,2.241C-62.132-223.645-62.006-223.467-61.822-223.374z"/>
		<path d="M-37.299-246.714c-1.287,0.249-2.332,0.143-3.135-0.318c-0.655-0.356-1.07-0.876-1.244-1.558l-0.021-0.086
			c-0.229-1.05,0.062-2.091,0.865-3.123c0.734-0.913,1.688-1.52,2.861-1.818c0.229-0.059,0.457-0.105,0.688-0.146
			c1.211-0.309,2.233-0.288,3.069,0.063c0.788,0.324,1.286,0.893,1.493,1.706c0.251,0.983,0.03,1.979-0.66,2.979
			c-0.729,1.094-1.767,1.812-3.108,2.154C-36.737-246.797-37.005-246.748-37.299-246.714z M-33.767-240.811
			c1.306-0.333,2.101,0.06,2.386,1.175c2.06,4.515,3.827,9.666,5.306,15.457c0.174,0.682,0.343,1.385,0.508,2.108l2.011,8.588
			c0.11,0.437-0.34,1.084-1.349,1.945c-0.978,0.834-1.807,1.337-2.485,1.512c-0.36,0.092-0.666,0.079-0.917-0.038
			c-1.856-0.876-3.267-2.645-4.227-5.302c-0.19-0.516-0.381-1.133-0.563-1.853c-0.396-1.552-0.8-3.605-1.209-6.161
			c-0.166-1.047-0.294-1.819-0.382-2.322c-0.341-1.888-0.765-3.825-1.271-5.813c-0.169-0.662-0.351-1.331-0.542-2.008
			c-0.126-0.411-0.299-0.893-0.521-1.439c-0.063-0.165-0.114-0.333-0.157-0.504c-0.231-0.907-0.139-1.92,0.283-3.035
			C-36.476-239.617-35.432-240.386-33.767-240.811z"/>
		<path d="M-5.937-223.693c0.646-0.064,2.479-0.432,5.493-1.101c3.278-0.734,5.806-1.229,7.575-1.479
			c4.544-0.596,7.025-0.07,7.445,1.577c0.155,0.605,0.035,1.361-0.357,2.269c-0.538,1.286-2.828,2.466-6.867,3.536L6.7-218.723
			c-1.117,0.285-2.479,0.593-4.089,0.922c-2.012,0.413-3.188,0.662-3.527,0.749c-1.4,0.357-3.452,0.73-6.154,1.117
			c-2.82,0.396-4.869,0.748-6.143,1.053c-3.729,0.871-5.809,0.466-6.236-1.221c-0.125-0.491-0.106-1.091,0.057-1.798
			c0.541-2.456,2.111-4.993,4.709-7.611c0.692-0.68,1.804-1.739,3.332-3.178c1.526-1.438,2.668-2.536,3.423-3.292
			c2.631-2.646,4.567-5.086,5.813-7.319c-0.351,0.131-1.642,0.642-3.872,1.533c-2.193,0.882-4.023,1.57-5.489,2.065
			c-1.003,0.336-1.921,0.609-2.754,0.823c-3.159,0.806-5.136,0.767-5.926-0.121c-0.648-0.723-1.063-1.434-1.24-2.134
			c-0.261-1.021-0.041-2.016,0.661-2.979c0.832-1.16,1.985-1.929,3.463-2.306c0.396-0.103,0.813-0.177,1.242-0.227
			c0.924-0.096,1.942-0.284,3.062-0.568c2.231-0.57,4.869-1.534,7.908-2.896c4.888-2.175,8.371-3.527,10.453-4.06l0.369-0.095
			c2.761-0.159,4.339,0.536,4.734,2.087c0.507,1.987-0.974,5.39-4.44,10.204c-1.873,2.614-4.383,5.694-7.529,9.238
			C-4.47-225.369-5.956-223.688-5.937-223.693z"/>
		<path d="M46.267-247.204c1.12-1.374,2.031-2.15,2.73-2.329s1.187,0.263,1.456,1.321c0.362,3.313-0.568,7.13-2.794,11.445
			c-2.179,4.186-4.696,7.228-7.56,9.125c-1.072,0.536-2.168,0.946-3.283,1.23c-5.547,1.415-11.457-0.422-17.734-5.514
			c-2.135-1.732-3.678-4.464-4.63-8.191c-0.399-1.57-0.697-3.328-0.894-5.274c-0.349-3.499,1.771-6.407,6.359-8.729
			c0.624-0.319,1.259-0.563,1.9-0.728c1.761-0.448,3.552-0.302,5.374,0.443c2.069,0.843,4.045,2.384,5.928,4.625
			c0.616,1.071,1.053,2.109,1.309,3.112c0.759,2.972-0.021,5.721-2.34,8.247c-0.377,0.418-0.91,0.856-1.601,1.314
			c-0.773,0.521-1.237,0.84-1.389,0.959c-0.345,0.311-0.477,0.625-0.395,0.946l0.016,0.058c0.14,0.389,0.606,0.843,1.405,1.365
			c1.691,1.1,3.398,1.43,5.121,0.99c0.492-0.125,0.988-0.313,1.489-0.563c2.089-1.058,3.906-3.174,5.454-6.351
			C44.284-243.916,45.64-246.419,46.267-247.204z M24.273-239.082c1.211-0.31,2.096-0.987,2.653-2.038
			c0.521-0.96,0.69-2.03,0.512-3.214c-0.03-0.193-0.068-0.387-0.116-0.575c-0.231-0.908-0.664-1.654-1.297-2.238
			c-0.85-0.792-1.877-1.113-3.09-0.966c-0.155,0.021-0.302,0.047-0.434,0.08c-0.758,0.193-1.265,0.655-1.521,1.387
			c-0.271,0.754-0.263,1.698,0.026,2.834C21.657-241.275,22.744-239.7,24.273-239.082z"/>
		<path d="M135.313-263.786c1.137,2.009,1.931,3.893,2.38,5.651c0.115,0.454,0.208,0.896,0.275,1.32
			c0.316,2.115-0.139,3.331-1.368,3.646c-0.358,0.092-0.787,0.11-1.285,0.057c-3.271-0.415-7.846-6.021-13.725-16.817
			c-1.281-2.334-3.521-6.649-6.722-12.948c-2.481-4.91-4.246-8.188-5.292-9.837c1.668,6.852,2.563,16.287,2.688,28.311
			c0.065,6.109-0.25,10.867-0.954,14.271c-0.687,3.319-1.689,5.148-3.016,5.486c-0.283,0.071-0.585,0.078-0.901,0.02
			c-3.215-0.591-7.321-6.457-12.32-17.599c-6.103-13.563-9.425-20.706-9.975-21.433c-0.362,3.237,0.124,9.967,1.463,20.188
			c1.31,10.106,1.77,16.612,1.381,19.513c-0.217,1.526-0.739,2.396-1.572,2.607c-0.492,0.126-1.104,0.01-1.842-0.346
			c-1.733-0.868-3.066-2.303-4-4.302c-0.389-0.81-0.729-1.799-1.03-2.974c-0.961-3.766-1.479-9.389-1.553-16.868l0.008,0.028
			l-0.398-13.414c-0.145-5.225-0.119-8.525,0.072-9.905c0.375-2.716,1.377-4.797,3.005-6.239c0.653-0.59,1.342-0.979,2.063-1.161
			c1.306-0.333,2.709-0.006,4.211,0.981c3.298,2.183,6.659,7.372,10.081,15.569c0.828,1.985,2.098,5.26,3.806,9.822
			c1.439,3.825,2.513,6.485,3.215,7.979c-0.206-2.548-0.599-8.191-1.176-16.934c-0.485-7.516-0.885-12.786-1.191-15.813
			c-0.438-4.241-0.562-6.82-0.371-7.735c0.468-2.438,2.224-4.044,5.271-4.821l0.31-0.077c2.779,1.812,5.689,5.16,8.731,10.047
			C120.102-290.22,126.678-278.977,135.313-263.786z"/>
		<path d="M169.242-278.581c1.121-1.375,2.031-2.15,2.732-2.33c0.699-0.178,1.186,0.263,1.455,1.322
			c0.361,3.313-0.568,7.129-2.795,11.445c-2.178,4.185-4.697,7.227-7.559,9.125c-1.072,0.536-2.167,0.945-3.284,1.23
			c-5.545,1.415-11.456-0.422-17.732-5.515c-2.136-1.731-3.679-4.463-4.63-8.19c-0.399-1.57-0.697-3.328-0.894-5.274
			c-0.349-3.499,1.771-6.408,6.358-8.729c0.625-0.319,1.259-0.563,1.9-0.728c1.761-0.448,3.553-0.301,5.374,0.442
			c2.069,0.844,4.046,2.385,5.928,4.625c0.615,1.073,1.054,2.11,1.31,3.113c0.758,2.971-0.021,5.72-2.342,8.247
			c-0.377,0.418-0.909,0.856-1.6,1.314c-0.772,0.521-1.236,0.84-1.389,0.959c-0.345,0.311-0.477,0.625-0.395,0.946l0.016,0.058
			c0.14,0.389,0.607,0.842,1.406,1.363c1.689,1.102,3.397,1.432,5.12,0.991c0.492-0.125,0.987-0.313,1.489-0.563
			c2.089-1.058,3.906-3.174,5.454-6.351C167.259-275.293,168.616-277.796,169.242-278.581z M147.247-270.459
			c1.211-0.31,2.097-0.987,2.655-2.038c0.521-0.96,0.69-2.03,0.51-3.214c-0.028-0.193-0.067-0.388-0.115-0.575
			c-0.23-0.908-0.664-1.654-1.298-2.238c-0.848-0.792-1.876-1.113-3.089-0.967c-0.155,0.021-0.301,0.048-0.434,0.08
			c-0.757,0.192-1.266,0.656-1.521,1.387c-0.271,0.754-0.262,1.698,0.028,2.834C144.632-272.653,145.719-271.077,147.247-270.459z"
			/>
	</g>
</g>
<g id="Layer_2">
	<g>
		<g>
			<path d="M366.748,188.838c12.319-5.246,31.93-9.137,39.934-18.462c8.24-9.597-4.304-28.155-8.499-37.788
				c-2.541-5.844-13.893-3.652-11.831,2.222c3.399,9.718,6.802,19.432,10.206,29.146c2.433-1.853,4.871-3.711,7.307-5.564
				c-59.356-17.156-258.826-50.509-245.971-109.383c1.271-5.828-8.048-1.001-9.325,4.842
				c-14.238,65.225,185.522,94.09,252.509,113.447c4.8,1.387,8.436-2.355,7.309-5.566c-3.399-9.715-6.801-19.431-10.203-29.143
				c-3.94,0.741-7.889,1.481-11.831,2.222c2.962,6.808,6.054,13.606,8.546,20.498c1.128,3.103,2.849,7.235,0.789,10.145
				c-1.99,2.815-7.931,4.369-11.495,5.727c-8.121,3.092-16.265,6.118-24.176,9.486C353.274,183.541,359.985,191.72,366.748,188.838
				L366.748,188.838z"/>
		</g>
	</g>
</g>
<g>
	<path d="M-161.015,80.747c1.229,1.74,2.136,3.631,2.717,5.675c0.677,2.378,0.91,4.953,0.703,7.731
		c-0.313,4.269-1.558,8.312-3.733,12.128c-3.33,5.845-8.64,11.433-15.929,16.764c-0.639,0.48-1.738,1.271-3.3,2.371l-1.041,0.746
		c0.034,0.05,0.057,0.09,0.063,0.116l-0.028,0.008c0.139,0.35,0.253,0.676,0.339,0.979c0.252,0.883,0.244,1.572-0.022,2.066
		c-0.869,1.531-1.888,2.463-3.057,2.797c-0.735,0.208-1.868,0.172-3.395-0.108c-1.438-0.249-2.539-0.322-3.306-0.224
		c-0.272,0.047-0.811,0.156-1.619,0.326c-4.743,1.171-7.998,0.8-9.767-1.116c-0.747-0.833-1.301-1.884-1.663-3.154
		c-0.22-0.773-0.371-1.626-0.453-2.561c-0.258-2.91,1.092-4.789,4.053-5.632c0.792-0.226,1.93-0.416,3.415-0.57
		c0.058-0.016,0.156-0.028,0.295-0.038c0.121-0.005,0.21-0.016,0.267-0.03c-4.126-10.981-7.806-20.609-11.04-28.887
		c-0.23-0.591-0.677-2.061-1.347-4.41c-2.084-7.32-3.547-11.129-4.386-11.428c-0.611-0.214-2.102-0.253-4.468-0.116
		c-3.53,0.199-6.129,0.058-7.795-0.423c-2.698-0.814-4.442-2.603-5.228-5.366l-0.13-0.455c-1.019-4.37,0.074-7.01,3.279-7.922
		c1.396-0.398,3.726-0.448,6.989-0.154c1.425,0.133,2.378,0.189,2.862,0.171c-0.592-2.369-0.603-4.517-0.031-6.441
		c0.595-1.992,1.656-3.206,3.185-3.641l0.226-0.063c1.094-0.312,2.156-0.015,3.188,0.884c1.324,1.146,2.341,2.961,3.05,5.448
		l0.129,0.456c0.162,0.642,0.301,1.378,0.416,2.211c0.045,0.376,0.077,0.589,0.093,0.646c0.095,0.123,0.492,0.369,1.188,0.737
		c1.813,0.857,4.11,1.547,6.889,2.071c4.491,0.811,11.151,3.006,19.979,6.583l2.935,1.183
		C-169.056,73.092-163.897,76.639-161.015,80.747z M-167.869,91.254l-0.119-0.415c-1.352-4.75-6.788-8.804-16.304-12.155
		l-2.655-0.948c-7.482-2.793-12.667-3.784-15.553-2.962c-0.415,0.118-0.807,0.275-1.181,0.471
		c1.222,4.221,3.372,10.404,6.444,18.549c1.103,2.94,1.89,5.061,2.361,6.359c0.153,0.465,0.446,1.352,0.88,2.661
		c2.382,7.146,4.232,11.249,5.552,12.305c6.617-3.973,11.595-7.899,14.935-11.776l0.651-0.723
		C-168.808,98.09-167.145,94.303-167.869,91.254z"/>
	<path d="M-131.964,70.01c1.288,0.797,2.104,1.805,2.45,3.021c0.087,0.304,0.14,0.632,0.159,0.985
		c-3.059,4.005-5.173,8.895-6.345,14.663c-1.301,6.313-1.452,13.301-0.452,20.958c0.741,5.614,0.366,8.632-1.123,9.056
		c-0.64,0.183-1.493-0.126-2.558-0.929c-2.628-1.999-5.513-6.478-8.657-13.438c-2.52-5.552-4.562-11.079-6.127-16.576
		c-0.279-2.34-0.14-4.036,0.416-5.091c0.274-0.465,0.609-0.755,1.006-0.869c0.433-0.123,0.923-0.053,1.467,0.21
		c2.608,1.288,5.043,5.328,7.305,12.118c-0.415-4.389,0.128-9.248,1.628-14.573c1.717-6.073,4.064-9.535,7.043-10.383l0.057-0.017
		C-134.64,68.846-133.396,69.133-131.964,70.01z"/>
	<path d="M-88.403,91.651c2.145,2.375,3.472,4.461,3.984,6.257c0.216,1.402-0.027,2.77-0.728,4.104
		c-0.682,1.329-1.569,2.15-2.662,2.462c-0.905,0.258-1.778,0.056-2.617-0.6c-1.717-1.304-3.778-4.209-6.185-8.722
		c-1.861-3.53-3.37-5.894-4.526-7.087c-0.06,0.436-0.148,1.086-0.268,1.956c-0.691,5.304-1.389,9.193-2.093,11.662
		c-1.221,4.229-2.947,7.08-5.178,8.553c-0.654,0.425-1.311,0.731-1.971,0.92c-1.923,0.547-3.734,0.093-5.434-1.365
		c-1.718-1.45-3.074-3.709-4.068-6.771c-1.778-6.239-1.254-14.676,1.57-25.307c4.587-10.237,8.653-15.859,12.198-16.868l0.283-0.081
		c1.433-0.408,3.121,1.261,5.065,5.007c1.107,2.104,2.559,5.514,4.35,10.23c0.611,1.647,1.001,2.658,1.168,3.027
		c0.142,0.287,0.45,0.977,0.925,2.066c1.586,3.641,2.87,6.215,3.851,7.728C-90.306,89.475-89.528,90.418-88.403,91.651z
		 M-108.106,75.936c-0.144-0.077-0.292-0.095-0.443-0.052c-0.623,0.176-1.232,1.292-1.831,3.344
		c-0.75,2.663-1.285,6.084-1.601,10.266c-0.277,3.901-0.262,6.778,0.042,8.632c1.715-1.352,2.989-4.613,3.821-9.777
		C-107.291,83.307-107.287,79.17-108.106,75.936z"/>
	<path d="M-69.175,53.071c3.02,0.364,4.832,1.611,5.438,3.738l0.106,0.373l-0.139,0.263c-0.502,0.892-0.292,2.951,0.628,6.182
		c0.504,1.768,1.221,3.893,2.151,6.375c0.663,1.752,1.094,2.943,1.293,3.573l0.512,1.692c1.626,5.211,3.038,9.916,4.234,14.114
		c1.824,6.408,3.152,11.645,3.984,15.711c0.929,4.481,1.315,8.521,1.158,12.122c-0.224,5.589-1.761,9.313-4.618,11.17
		c-0.615,0.413-1.29,0.726-2.026,0.936c-2.829,0.806-5.842,0.141-9.039-1.995c-1.555-1.022-3.029-2.438-4.421-4.252
		c-0.695-0.937-1.285-1.68-1.767-2.229c-2.618-3.106-4.26-5.834-4.93-8.182c-0.495-1.74-0.449-3.262,0.139-4.564
		c0.189-0.264,0.397-0.426,0.623-0.49c1.34-0.382,3.265,1.04,5.773,4.269c1.561,1.974,3.24,3.572,5.036,4.793
		c1.992,1.343,3.62,1.836,4.884,1.477c1.754-0.5,2.539-2.648,2.354-6.449c-0.199-3.707-1.216-8.778-3.048-15.213
		c-0.645-2.265-1.388-4.699-2.23-7.296c-1.229-3.741-2.184-6.813-2.869-9.217c-0.244-0.854-0.455-1.63-0.632-2.327
		c-0.294,1.187-0.582,3.078-0.863,5.665c-0.673,6.016-1.986,9.853-3.938,11.513c-0.534,0.422-1.111,0.72-1.733,0.898
		c-1.924,0.548-3.991-0.162-6.203-2.131c-2.052-1.836-3.654-4.17-4.809-7.007c-0.553-1.366-1.021-2.726-1.407-4.08
		c-1.597-5.608-1.72-11.052-0.371-16.335c1.758-6.86,5.275-11.043,10.556-12.547l0.708-0.202
		C-73.02,52.955-71.198,52.841-69.175,53.071z M-78.933,71.529c-0.336,2.186-0.353,4.49-0.05,6.913
		c0.117,0.982,0.285,1.86,0.505,2.632c0.457,1.604,1.139,2.708,2.045,3.316c0.072,0.038,0.155,0.043,0.249,0.017
		c1.34-0.381,2.866-6.652,4.581-18.819c0.235-1.68,0.375-2.688,0.421-3.03c-0.243-0.35-0.685-0.431-1.325-0.249
		c-1.208,0.343-2.463,1.371-3.769,3.089C-77.731,67.303-78.617,69.347-78.933,71.529z"/>
	<path d="M5.254,50.914c0.952-1.884,1.777-2.924,2.475-3.124c0.697-0.199,1.268,0.475,1.708,2.022
		c0.876,4.798,0.491,10.208-1.158,16.232c-1.621,5.837-3.767,10.003-6.441,12.496c-1.029,0.682-2.1,1.181-3.212,1.498
		c-5.527,1.573-11.924-1.562-19.192-9.408c-2.472-2.668-4.483-6.726-6.033-12.167c-0.653-2.293-1.228-4.849-1.724-7.663
		c-0.891-5.063,0.862-9.072,5.261-12.026c0.597-0.409,1.216-0.705,1.858-0.888c1.752-0.5,3.63-0.137,5.629,1.085
		c2.27,1.385,4.547,3.767,6.835,7.147c0.801,1.595,1.409,3.123,1.827,4.587c1.236,4.337,0.845,8.227-1.172,11.667
		c-0.327,0.57-0.813,1.157-1.457,1.758c-0.723,0.685-1.154,1.105-1.291,1.265c-0.31,0.416-0.398,0.857-0.265,1.328l0.024,0.084
		c0.203,0.569,0.757,1.263,1.662,2.079c1.917,1.723,3.735,2.34,5.452,1.852c0.491-0.14,0.976-0.367,1.456-0.684
		c2.002-1.345,3.564-4.239,4.684-8.68C3.7,55.479,4.725,51.99,5.254,50.914z M-16.282,60.765c1.208-0.343,2.021-1.247,2.44-2.711
		c0.393-1.335,0.407-2.863,0.04-4.581c-0.06-0.281-0.128-0.561-0.208-0.836c-0.377-1.327-0.938-2.436-1.682-3.33
		c-0.997-1.208-2.111-1.757-3.344-1.646c-0.158,0.015-0.303,0.043-0.436,0.08c-0.754,0.215-1.209,0.837-1.363,1.868
		c-0.167,1.062-0.015,2.422,0.457,4.079C-19.323,57.39-17.957,59.749-16.282,60.765z"/>
	<path d="M42.359,53.204c2.285,2.159,3.684,4.133,4.195,5.927c0.158,0.555,0.231,1.101,0.222,1.642
		c-0.103,3.432-0.833,5.342-2.191,5.729c-1.641,0.468-4.768-2.137-9.38-7.811c-1.127-1.382-1.911-2.307-2.352-2.781
		c-0.192,6.268-2.645,11.222-7.356,14.863c-2.188,1.698-4.319,2.843-6.393,3.434c-2.942,0.836-4.779-0.029-5.511-2.599
		c-0.53-1.222-0.977-2.469-1.338-3.739c-2.282-8.011-0.89-16.546,4.176-25.603c0.274-0.467,0.961-1.275,2.061-2.424
		c2.721-2.834,3.915-4.833,3.584-5.993c-0.65-1.785-1.491-4.486-2.522-8.105c-0.519-1.824-1.082-3.874-1.69-6.15
		c-0.771-2.856-1.425-5.223-1.96-7.101c-0.401-1.409-0.733-2.539-0.996-3.391L14.76,8.697c-0.304-0.928-0.579-1.82-0.823-2.676
		c-1.534-5.387-1.979-9.097-1.336-11.134c0.435-1.407,1.294-2.293,2.576-2.659c0.208-0.059,0.418-0.104,0.634-0.137
		c0.646-0.094,1.458,0.542,2.438,1.905c0.824,1.169,1.489,2.399,1.999,3.687c1.128,2.814,2.698,7.757,4.712,14.828l0.696,2.446
		c0.268,0.938,0.667,2.379,1.199,4.317c0.288,1.083,0.573,2.121,0.856,3.117c1.833,6.436,3.486,11.236,4.958,14.401
		C35.032,41.943,38.262,47.414,42.359,53.204z M25.414,47.504c-1.622,1.536-3.039,3.328-4.249,5.375
		c-1.514,2.491-2.195,4.611-2.042,6.362c0.022,0.292,0.073,0.576,0.151,0.852c0.181,0.636,0.5,1.185,0.959,1.653l0.799-0.094
		c1.659-0.474,2.946-2.288,3.862-5.446C25.759,53.154,25.931,50.253,25.414,47.504z"/>
	<path d="M61.989,15.72c3.019,0.364,4.832,1.611,5.437,3.738l0.106,0.373l-0.139,0.264c-0.501,0.891-0.291,2.95,0.628,6.182
		c0.504,1.768,1.222,3.893,2.153,6.375c0.661,1.752,1.093,2.943,1.292,3.573l0.511,1.691c1.628,5.211,3.039,9.917,4.235,14.115
		c1.824,6.408,3.152,11.645,3.983,15.709c0.93,4.482,1.317,8.523,1.159,12.123c-0.223,5.59-1.761,9.312-4.616,11.171
		c-0.616,0.412-1.292,0.726-2.027,0.936c-2.829,0.806-5.842,0.141-9.039-1.996c-1.555-1.021-3.029-2.438-4.421-4.25
		c-0.695-0.939-1.284-1.68-1.767-2.23c-2.617-3.106-4.26-5.835-4.93-8.183c-0.494-1.74-0.449-3.261,0.139-4.563
		c0.189-0.265,0.398-0.428,0.625-0.492c1.338-0.381,3.263,1.042,5.771,4.271c1.562,1.974,3.24,3.572,5.036,4.792
		c1.992,1.343,3.62,1.835,4.884,1.475c1.754-0.499,2.539-2.647,2.354-6.447c-0.199-3.707-1.216-8.78-3.048-15.214
		c-0.645-2.265-1.389-4.697-2.23-7.294c-1.227-3.741-2.184-6.813-2.868-9.217c-0.244-0.854-0.456-1.632-0.633-2.328
		c-0.294,1.188-0.581,3.078-0.863,5.667c-0.672,6.015-1.986,9.853-3.938,11.513c-0.534,0.422-1.111,0.72-1.733,0.898
		c-1.923,0.547-3.991-0.164-6.203-2.131c-2.051-1.836-3.654-4.17-4.809-7.007c-0.552-1.366-1.021-2.727-1.407-4.08
		c-1.597-5.608-1.72-11.052-0.371-16.334c1.757-6.86,5.275-11.044,10.556-12.547l0.708-0.201
		C58.144,15.605,59.966,15.491,61.989,15.72z M52.23,34.178c-0.335,2.186-0.353,4.491-0.05,6.914
		c0.117,0.981,0.285,1.86,0.505,2.632c0.457,1.604,1.139,2.708,2.045,3.316c0.072,0.038,0.155,0.043,0.249,0.017
		c1.339-0.382,2.867-6.652,4.58-18.819c0.235-1.68,0.375-2.689,0.421-3.031c-0.242-0.35-0.684-0.432-1.324-0.25
		c-1.208,0.344-2.464,1.372-3.769,3.089C53.433,29.954,52.547,31.998,52.23,34.178z"/>
	<path d="M107.256,21.869c0.951-1.884,1.776-2.925,2.474-3.124c0.698-0.199,1.268,0.475,1.708,2.021
		c0.877,4.799,0.49,10.21-1.159,16.232c-1.619,5.837-3.767,10.003-6.44,12.495c-1.03,0.683-2.102,1.182-3.214,1.499
		c-5.525,1.573-11.922-1.562-19.192-9.408c-2.473-2.669-4.483-6.726-6.032-12.167c-0.653-2.293-1.229-4.848-1.725-7.662
		c-0.891-5.063,0.863-9.073,5.262-12.026c0.596-0.409,1.215-0.705,1.856-0.888c1.754-0.5,3.63-0.137,5.63,1.085
		c2.268,1.385,4.547,3.767,6.835,7.147c0.801,1.593,1.409,3.123,1.825,4.586c1.236,4.337,0.845,8.226-1.172,11.668
		c-0.327,0.57-0.811,1.157-1.456,1.757c-0.723,0.685-1.154,1.106-1.292,1.265c-0.308,0.417-0.396,0.858-0.263,1.329l0.024,0.083
		c0.203,0.569,0.758,1.262,1.662,2.08c1.918,1.723,3.735,2.34,5.451,1.851c0.49-0.14,0.976-0.366,1.457-0.683
		c2.002-1.346,3.564-4.239,4.683-8.681C105.702,26.434,106.726,22.945,107.256,21.869z M85.719,31.72
		c1.207-0.344,2.02-1.246,2.439-2.711c0.394-1.336,0.408-2.863,0.041-4.581c-0.061-0.282-0.129-0.56-0.208-0.836
		c-0.378-1.327-0.938-2.436-1.681-3.33c-0.998-1.208-2.111-1.757-3.344-1.646c-0.158,0.015-0.304,0.043-0.436,0.08
		c-0.755,0.215-1.21,0.837-1.365,1.867c-0.167,1.062-0.014,2.423,0.458,4.081C82.678,28.345,84.043,30.703,85.719,31.72z"/>
	<path d="M165.058-13.226c0.571,0.794,0.972,1.591,1.201,2.391c0.181,0.636,0.255,1.257,0.226,1.864
		c-0.111,2.479-1.603,4.576-4.479,6.291c-1.782,1.045-4.581,2.35-8.396,3.913l-1.095,0.447c0.036,0.199,0.165,0.759,0.386,1.682
		c0.528,2.359,0.978,4.187,1.348,5.483c0.157,0.555,0.297,1.008,0.417,1.361c1.065,2.951,2.275,6.699,3.629,11.239l0.532,1.866
		c1.8,6.325,2.384,9.773,1.752,10.34c0.008,0.176-0.458,0.4-1.401,0.668c-2.282,0.65-3.557,0.864-3.823,0.64
		c-2.229-1.813-4.441-6.574-6.636-14.281c-0.668-2.348-1.328-4.952-1.979-7.813c-0.13-0.529-0.266-1.044-0.409-1.542
		c-0.684-2.403-1.478-4.012-2.384-4.829c-0.799-0.729-2.132-0.828-3.999-0.297l-0.51,0.146c-0.292,0.114-0.571,0.208-0.835,0.283
		c-1.264,0.36-2.272,0.468-3.027,0.325c-1.489-0.293-2.82-1.421-3.993-3.388l-0.07-0.248c-0.292-1.023-0.299-1.944-0.024-2.771
		c0.6-1.902,2.331-3.262,5.198-4.079c0.642-0.182,1.202-0.297,1.678-0.342c0.373-0.047,0.71-0.113,1.013-0.199
		c0.716-0.204,1.349-0.594,1.9-1.168c-1.265-3.582-2.401-7.141-3.409-10.677c-0.779-2.736-1.479-5.447-2.101-8.138
		c-1.863-8.188-2.348-13.86-1.452-17.012c0.433-1.557,1.206-2.494,2.32-2.811l0.283-0.081c0.451-0.129,0.922,0.022,1.412,0.449
		c1.091,0.973,2.373,4.043,3.844,9.208c0.866,3.039,1.791,6.792,2.778,11.259c0.649,2.922,1.089,4.827,1.321,5.715
		c0.265,1,0.625,2.302,1.082,3.903l1.404,4.933c0.126,0.441,0.765,0.499,1.915,0.171c0.245-0.07,0.514-0.162,0.809-0.276
		c1.715-0.636,3.766-1.701,6.156-3.186c0.116-0.094,0.378-0.287,0.783-0.582c1.43-1.064,2.568-1.717,3.417-1.959
		C163.196-14.712,164.269-14.345,165.058-13.226z"/>
	<path d="M176.85-18.421c2.999-0.854,5.864,0.122,8.601,2.927c2.736,2.805,4.895,6.981,6.475,12.535
		c1.865,6.546,2.366,12.676,1.505,18.386c-0.997,6.376-3.514,10.139-7.55,11.288c-0.791,0.226-1.638,0.332-2.538,0.319
		c-3.446-0.003-6.595-2.287-9.444-6.852c-1.921-3.095-3.507-6.84-4.757-11.233c-0.314-1.103-0.61-2.245-0.883-3.421
		c-1.42-6.137-1.39-11.356,0.097-15.662c1.458-4.328,4.121-7.042,7.987-8.143L176.85-18.421z M176.202-0.183
		c-0.127,1.917,0.129,3.994,0.767,6.232l0.165,0.58c0.752,2.502,1.736,4.523,2.947,6.06c1.124,1.441,2.149,2.03,3.074,1.768
		c1.037-0.295,1.848-1.63,2.435-4.009c0.608-2.442,0.521-5.328-0.265-8.661c-0.106-0.445-0.219-0.876-0.336-1.291
		c-0.787-2.763-1.901-5.028-3.343-6.798c-0.839-1.015-1.675-1.404-2.504-1.168c-0.98,0.279-1.783,1.255-2.409,2.926
		C176.122-2.968,175.947-1.514,176.202-0.183z"/>
	<path d="M246.083-37.642c1.288,0.798,2.104,1.804,2.451,3.021c0.087,0.304,0.139,0.631,0.158,0.985
		c-3.06,4.006-5.174,8.895-6.346,14.663c-1.301,6.313-1.451,13.3-0.452,20.958c0.743,5.614,0.367,8.631-1.122,9.056
		c-0.642,0.183-1.495-0.126-2.559-0.929c-2.628-1.999-5.514-6.478-8.657-13.438c-2.52-5.553-4.562-11.079-6.127-16.577
		c-0.28-2.339-0.14-4.036,0.415-5.091c0.274-0.464,0.611-0.755,1.007-0.868c0.434-0.123,0.922-0.054,1.466,0.209
		c2.61,1.288,5.045,5.328,7.306,12.119c-0.414-4.389,0.128-9.249,1.628-14.574c1.717-6.073,4.064-9.534,7.045-10.382l0.056-0.017
		C243.407-38.807,244.651-38.519,246.083-37.642z"/>
	<path d="M285.064-28.764c0.951-1.883,1.775-2.924,2.473-3.124c0.698-0.198,1.269,0.476,1.708,2.022
		c0.877,4.798,0.492,10.209-1.157,16.232c-1.619,5.836-3.767,10.003-6.441,12.495c-1.028,0.682-2.1,1.181-3.213,1.498
		c-5.525,1.574-11.922-1.562-19.191-9.408c-2.473-2.669-4.482-6.726-6.034-12.167c-0.652-2.293-1.229-4.849-1.723-7.662
		c-0.892-5.063,0.861-9.072,5.261-12.026c0.597-0.409,1.216-0.706,1.857-0.888c1.754-0.5,3.63-0.137,5.629,1.086
		c2.27,1.384,4.548,3.767,6.837,7.146c0.802,1.594,1.408,3.124,1.825,4.587c1.236,4.338,0.845,8.226-1.172,11.667
		c-0.328,0.57-0.813,1.157-1.457,1.758c-0.724,0.684-1.153,1.105-1.291,1.264c-0.31,0.417-0.397,0.858-0.264,1.329l0.024,0.083
		c0.202,0.569,0.757,1.263,1.661,2.08c1.918,1.723,3.735,2.34,5.451,1.852c0.49-0.14,0.977-0.366,1.456-0.683
		c2.002-1.346,3.563-4.24,4.685-8.682C283.509-24.199,284.534-27.687,285.064-28.764z M263.527-18.913
		c1.207-0.343,2.02-1.246,2.439-2.71c0.393-1.335,0.406-2.863,0.039-4.581c-0.059-0.282-0.127-0.56-0.207-0.835
		c-0.377-1.327-0.938-2.437-1.682-3.331c-0.996-1.208-2.11-1.757-3.342-1.646c-0.16,0.016-0.305,0.043-0.438,0.081
		c-0.754,0.215-1.209,0.836-1.363,1.867c-0.166,1.062-0.014,2.422,0.458,4.08C260.486-22.288,261.85-19.928,263.527-18.913z"/>
	<path d="M294.292-36.946l0.309,0.224c0.988,0.108,6.146,1.179,15.471,3.21c3.417,0.761,5.968,1.991,7.654,3.688
		c1.114,1.117,1.902,2.491,2.366,4.12c0.411,1.438,0.567,3.064,0.474,4.883c-0.119,1.945-1.22,4.02-3.303,6.227
		c-1.946,2.046-4.337,3.817-7.174,5.31c-1.681,0.899-3.267,1.56-4.756,1.983c-1.057,0.3-2.073,0.486-3.051,0.555
		c-2.613,0.207-4.408-0.508-5.382-2.141c-0.951-1.551-1.624-3.016-2.018-4.399c-0.298-1.048-0.44-2.054-0.43-3.013
		c0.01-1.615,0.477-2.554,1.401-2.817c0.49-0.14,1.091-0.102,1.804,0.113c3.287,0.945,5.959,1.125,8.014,0.54
		c2.188-0.623,3.668-2.118,4.439-4.489c-0.339,0.097-4.63-0.473-12.87-1.709c-6.152-0.907-9.804-3.392-10.96-7.452
		c-0.223-0.564-0.412-1.123-0.568-1.675c-1.149-4.033-0.534-7.956,1.846-11.77c2.228-3.56,4.841-5.77,7.839-6.623l0.51-0.145
		c1.073-0.306,2.179-0.186,3.313,0.356c1.062,0.505,1.907,1.265,2.544,2.277c0.272,0.46,0.474,0.912,0.6,1.352
		c0.181,0.636,0.227,1.265,0.14,1.888c-0.185,1.216-0.878,2.249-2.083,3.102c-3.043,1.702-4.573,2.556-4.593,2.562
		c-1.59,1.141-2.261,2.151-2.009,3.035C293.929-37.365,294.086-37.096,294.292-36.946z"/>
	<path d="M316.139-68.476c-1.295,0.249-2.393,0.009-3.294-0.721c-0.732-0.566-1.241-1.349-1.524-2.344l-0.034-0.123
		c-0.395-1.529-0.254-3.002,0.423-4.421c0.622-1.252,1.517-2.045,2.687-2.377c0.226-0.064,0.457-0.115,0.691-0.153
		c1.206-0.344,2.27-0.227,3.186,0.346c0.865,0.532,1.467,1.39,1.805,2.578c0.41,1.438,0.332,2.848-0.231,4.231
		c-0.59,1.513-1.554,2.459-2.892,2.841C316.709-68.55,316.437-68.503,316.139-68.476z M320.688-59.694
		c1.302-0.371,2.185,0.26,2.649,1.891c2.814,6.664,5.426,14.221,7.833,22.674c0.282,0.995,0.564,2.02,0.845,3.075l3.382,12.52
		c0.181,0.636-0.187,1.532-1.101,2.688c-0.885,1.118-1.667,1.773-2.345,1.967c-0.358,0.103-0.677,0.058-0.955-0.132
		c-2.054-1.415-3.78-4.073-5.177-7.977c-0.276-0.757-0.564-1.662-0.863-2.71c-0.646-2.266-1.374-5.254-2.186-8.964
		c-0.332-1.519-0.58-2.643-0.746-3.372c-0.64-2.744-1.372-5.567-2.197-8.466c-0.275-0.968-0.564-1.947-0.867-2.936
		c-0.191-0.603-0.442-1.307-0.755-2.115c-0.09-0.243-0.17-0.489-0.239-0.737c-0.379-1.327-0.434-2.774-0.167-4.342
		C318.066-58.199,319.029-59.221,320.688-59.694z"/>
	<path d="M352.09-32.753c0.661-0.039,2.501-0.414,5.521-1.124c3.282-0.787,5.821-1.285,7.615-1.498
		c4.613-0.478,7.263,0.485,7.948,2.888c0.252,0.886,0.242,1.964-0.028,3.233c-0.362,1.806-2.554,3.311-6.573,4.516l-0.65,0.185
		c-1.113,0.317-2.477,0.646-4.092,0.986c-2.019,0.426-3.2,0.686-3.539,0.783c-1.396,0.397-3.463,0.762-6.202,1.095
		c-2.859,0.337-4.926,0.671-6.196,1.003c-3.728,0.941-5.941,0.185-6.642-2.275c-0.205-0.717-0.276-1.578-0.215-2.581
		c0.188-3.489,1.429-7.008,3.722-10.558c0.613-0.92,1.603-2.353,2.965-4.293c1.365-1.942,2.379-3.425,3.045-4.45
		c2.322-3.588,3.959-6.936,4.909-10.043c-0.344,0.157-1.604,0.785-3.777,1.88c-2.137,1.087-3.927,1.925-5.368,2.517
		c-0.986,0.399-1.896,0.718-2.726,0.955c-3.15,0.896-5.201,0.674-6.152-0.668c-0.78-1.091-1.315-2.148-1.607-3.17
		c-0.426-1.492-0.348-2.903,0.232-4.232c0.687-1.598,1.766-2.608,3.236-3.027c0.396-0.113,0.813-0.186,1.251-0.221
		c0.941-0.06,1.969-0.249,3.081-0.565c2.225-0.633,4.808-1.801,7.747-3.503c4.731-2.721,8.131-4.377,10.208-4.967l0.366-0.105
		c2.833-0.001,4.573,1.132,5.218,3.396c0.826,2.901-0.19,7.671-3.05,14.309c-1.543,3.605-3.675,7.825-6.395,12.661
		C353.356-35.04,352.072-32.748,352.09-32.753z"/>
	<path d="M402.566-62.224c0.951-1.883,1.775-2.924,2.474-3.123c0.696-0.199,1.267,0.475,1.707,2.021
		c0.877,4.798,0.491,10.209-1.157,16.232c-1.62,5.837-3.768,10.003-6.44,12.495c-1.03,0.682-2.102,1.182-3.214,1.498
		c-5.525,1.573-11.922-1.562-19.191-9.408c-2.473-2.668-4.483-6.726-6.034-12.167c-0.653-2.293-1.229-4.848-1.724-7.662
		c-0.891-5.063,0.861-9.072,5.261-12.025c0.597-0.409,1.216-0.706,1.857-0.888c1.755-0.5,3.63-0.137,5.63,1.085
		c2.27,1.385,4.549,3.767,6.836,7.147c0.802,1.594,1.41,3.123,1.827,4.587c1.234,4.337,0.844,8.226-1.174,11.667
		c-0.326,0.57-0.813,1.157-1.456,1.758c-0.723,0.685-1.152,1.105-1.291,1.264c-0.31,0.417-0.398,0.858-0.264,1.329l0.023,0.083
		c0.202,0.569,0.757,1.263,1.662,2.081c1.918,1.723,3.734,2.339,5.451,1.851c0.49-0.139,0.977-0.366,1.457-0.683
		c2.002-1.346,3.563-4.239,4.684-8.681C401.01-57.658,402.036-61.148,402.566-62.224z M381.029-52.372
		c1.206-0.344,2.019-1.247,2.439-2.71c0.394-1.336,0.406-2.864,0.04-4.582c-0.06-0.282-0.129-0.56-0.209-0.835
		c-0.376-1.327-0.937-2.437-1.68-3.331c-0.997-1.208-2.112-1.757-3.344-1.645c-0.159,0.015-0.304,0.042-0.436,0.08
		c-0.755,0.215-1.209,0.836-1.364,1.867c-0.167,1.062-0.015,2.423,0.458,4.08C377.988-55.747,379.353-53.388,381.029-52.372z"/>
</g>
</svg>
